<?xml version="1.0" encoding="UTF-8" standalone="no"?>
<svg
   xmlns:dc="http://purl.org/dc/elements/1.1/"
   xmlns:cc="http://creativecommons.org/ns#"
   xmlns:rdf="http://www.w3.org/1999/02/22-rdf-syntax-ns#"
   xmlns:svg="http://www.w3.org/2000/svg"
   xmlns="http://www.w3.org/2000/svg"
   xmlns:sodipodi="http://sodipodi.sourceforge.net/DTD/sodipodi-0.dtd"
   xmlns:inkscape="http://www.inkscape.org/namespaces/inkscape"
   version="1.1"
   height="80"
   width="80"
   id="svg2"
   inkscape:version="0.48.4 r9939"
   sodipodi:docname="bitbucket.svg"
   inkscape:export-filename="/home/buschmann/Dokumente/Entwicklung/Projekte/ocNews/reader/harmattan/qml/ocNewsReader/Pages/icons/bitbucket.png"
   inkscape:export-xdpi="54"
   inkscape:export-ydpi="54">
  <metadata
     id="metadata35" />
  <sodipodi:namedview
     pagecolor="#ffffff"
     bordercolor="#666666"
     borderopacity="1"
     objecttolerance="10"
     gridtolerance="10"
     guidetolerance="10"
     inkscape:pageopacity="0"
     inkscape:pageshadow="2"
     inkscape:window-width="640"
     inkscape:window-height="480"
     id="namedview33"
     showgrid="false"
     inkscape:zoom="2.95"
     inkscape:cx="40"
     inkscape:cy="40"
     inkscape:window-x="75"
     inkscape:window-y="174"
     inkscape:window-maximized="0"
     inkscape:current-layer="svg2" />
  <defs
     id="defs4">
    <linearGradient
       id="hicg_overlay_grad"
       gradientUnits="userSpaceOnUse"
       x1="39.9995"
       y1="5.1816"
       x2="39.9995"
       y2="58.8019">
      <stop
         offset="0"
         style="stop-color:#FFFFFF"
         id="stop7" />
      <stop
         offset="1"
         style="stop-color:#000000"
         id="stop9" />
    </linearGradient>
    <filter
       id="hicg_drop_shadow">
      <feOffset
         in="SourceAlpha"
         dx="0"
         dy="4"
         id="feOffset12" />
      <feGaussianBlur
         stdDeviation="4"
         id="feGaussianBlur14" />
      <feColorMatrix
         type="matrix"
         values="1 0 0 0 0  0 1 0 0 0  0 0 1 0 0  0 0 0 0.5 0"
         result="shadow"
         id="feColorMatrix16" />
      <feBlend
         in="SourceGraphic"
         in2="shadow"
         mode="normal"
         id="feBlend18" />
    </filter>
  </defs>
  <g
     id="g20">
    <path
       id="hicg_background"
       fill="#2c65a0"
       d="M79,40c0,28.893-10.105,39-39,39S1,68.893,1,40C1,11.106,11.105,1,40,1S79,11.106,79,40z" />
    <path
       id="hicg_highlight"
       fill="#fff"
       opacity="0.25"
       d="M39.999,1C11.105,1,1,11.106,1,40c0,28.893,10.105,39,38.999,39   C68.896,79,79,68.893,79,40C79,11.106,68.896,1,39.999,1z M39.999,78.025C11.57,78.025,1.976,68.43,1.976,40   c0-28.429,9.595-38.024,38.023-38.024c28.43,0,38.024,9.596,38.024,38.024C78.023,68.43,68.429,78.025,39.999,78.025z" />
    <path
       id="hicg_overlay"
       opacity="0.4"
       fill="url(#hicg_overlay_grad)"
       d="M78.977,40c0,28.893-10.1,39-38.977,39S1.023,68.893,1.023,40c0-28.894,10.1-39,38.977-39S78.977,11.106,78.977,40z" />
  </g>
  <g
     transform="translate(13, 13) scale(0.54)"
     filter="url(#hicg_drop_shadow)"
     id="g25">
    <metadata
       id="metadata15">
      <rdf:RDF>
        <cc:Work
           rdf:about="">
          <dc:format>image/svg+xml</dc:format>
          <dc:type
             rdf:resource="http://purl.org/dc/dcmitype/StillImage" />
          <dc:title></dc:title>
        </cc:Work>
      </rdf:RDF>
    </metadata>
    <defs
       id="defs13" />
    <sodipodi:namedview
       pagecolor="#ffffff"
       bordercolor="#666666"
       borderopacity="1"
       objecttolerance="10"
       gridtolerance="10"
       guidetolerance="10"
       inkscape:pageopacity="0"
       inkscape:pageshadow="2"
       inkscape:window-width="1680"
       inkscape:window-height="995"
       id="namedview11"
       showgrid="false"
       inkscape:zoom="2.36"
       inkscape:cx="50"
       inkscape:cy="50.211864"
       inkscape:window-x="1278"
       inkscape:window-y="-3"
       inkscape:window-maximized="1"
       inkscape:current-layer="Capa_1" />
    <path
       inkscape:connector-curvature="0"
       id="path5"
       d="m 81.053244,70.106722 c -9.151979,6.046764 -19.517542,9.06959 -31.098916,9.06959 -11.581373,0 -21.928009,-3.022826 -31.03768,-9.06959 l -1.103359,0.55001 -0.367416,0.982001 c 1.307108,8.007425 2.471703,13.971799 3.492672,17.893122 0.81722,1.429579 1.879385,2.685471 3.186492,3.767676 1.307108,1.082205 2.797923,1.972908 4.473559,2.666544 1.674523,0.693635 3.237707,1.244758 4.687328,1.654482 1.44962,0.409723 3.115235,0.776025 4.99462,1.103359 4.207461,0.693635 8.323625,1.072184 12.347379,1.134533 4.023753,0.06012 8.149938,-0.389682 12.378553,-1.350529 4.228615,-0.959733 8.098722,-2.420487 11.612548,-4.380035 1.470774,-0.818334 2.65541,-1.972908 3.553907,-3.461497 0.898498,-1.494155 1.479682,-2.920394 1.74578,-4.289851 0.264984,-1.369457 0.552236,-3.082948 0.858415,-5.14938 0.30618,-2.060866 0.622379,-3.62405 0.949713,-4.687328 0,-0.368528 0.162553,-1.122286 0.489887,-2.266841 0.32622,-1.144554 0.428651,-2.063092 0.306179,-2.757841 -0.121358,-0.693635 -0.612359,-1.164594 -1.469661,-1.408425 z"
       style="fill:#ffffff;fill-opacity:1" />
    <path
       inkscape:connector-curvature="0"
       id="path7"
       d="m 9.6321761,32.938775 c 0.4286509,2.512897 1.0009279,5.811841 1.7157179,9.897943 0.713676,4.086103 1.255892,7.150123 1.623307,9.192061 0.08128,0.366302 0.193728,1.084432 0.337354,2.144369 0.142513,1.063278 0.264985,1.869365 0.367415,2.420487 0.101318,0.551123 0.285026,1.246985 0.552237,2.08202 0.264984,0.840602 0.612358,1.553164 1.041009,2.144369 0.428652,0.593431 0.949713,1.134534 1.563185,1.625534 5.964374,4.577103 14.011881,7.412881 24.143635,8.51624 14.62424,1.553164 27.085183,-0.24383 37.37949,-5.39321 1.348302,-0.691409 2.460568,-1.326035 3.340138,-1.898312 0.878457,-0.572278 1.766933,-1.388385 2.665431,-2.450549 0.898497,-1.059937 1.44962,-2.206718 1.654482,-3.432549 3.471517,-19.93506 5.739471,-33.313428 6.801635,-40.137331 0.244944,-0.938579 0.357395,-2.041938 0.337354,-3.30785 -0.02115,-1.265913 -0.358508,-2.306923 -1.010949,-3.12637 C 89.691956,8.1104117 85.300787,5.6220085 78.968998,3.7403972 66.836501,0.18537642 53.027255,-0.8344792 37.5446,0.67637678 29.863395,1.4112072 23.47037,2.7205415 18.364412,4.5976994 17.138581,5.0475047 16.158807,5.4260537 15.422863,5.7322331 14.688032,6.0384124 13.747227,6.4982382 12.603786,7.1105969 11.459232,7.7229556 10.540694,8.3364277 9.845945,8.9487865 9.1511961,9.5611452 8.5076628,10.32715 7.9153449,11.246802 7.323027,12.166453 6.9656322,13.157361 6.8431604,14.219525 c 0.3674153,2.939322 0.8172206,6.168122 1.3483026,9.679721 0.531082,3.514939 1.012062,6.528858 1.4407131,9.039529 z M 60.524753,56.62481 c -2.491743,3.105215 -5.596959,4.820933 -9.314533,5.14604 -3.759882,0.327334 -7.138989,-0.816107 -10.141774,-3.430322 -3.002784,-2.614215 -4.58601,-5.780667 -4.749677,-9.498241 -0.122471,-2.82019 0.582298,-5.464466 2.114308,-7.937282 1.53201,-2.470589 3.585082,-4.277604 6.158102,-5.422158 4.003713,-1.798108 8.027466,-1.53201 12.072374,0.797179 4.044908,2.326964 6.35183,5.678236 6.924107,10.04825 0.449805,3.759883 -0.571164,7.192432 -3.062907,10.296534 z M 24.798632,10.48191 c 1.307107,-0.6947488 2.429394,-1.1445541 3.370199,-1.3471892 0.939693,-0.2037484 2.286882,-0.4475785 4.043795,-0.7348304 11.233999,-2.000743 22.796445,-2.041938 34.683998,-0.1246985 2.000743,0.3284469 3.451476,0.5845242 4.351087,0.7660051 0.898497,0.184821 2.083133,0.6346263 3.553907,1.350529 1.470775,0.715903 2.614215,1.623308 3.431436,2.726667 -1.184636,1.184635 -2.716646,2.135462 -4.596031,2.848024 -1.879384,0.715903 -3.360179,1.155688 -4.442384,1.319355 -1.083318,0.162554 -2.910374,0.409724 -5.484507,0.734831 -8.988313,1.144554 -18.139179,1.122286 -27.453712,-0.06235 -2.451662,-0.285025 -4.238636,-0.519948 -5.362036,-0.703655 -1.124513,-0.184821 -2.625348,-0.6324 -4.50362,-1.34719 -1.879384,-0.715903 -3.431435,-1.644461 -4.656153,-2.789015 0.735944,-1.062164 1.7558,-1.942848 3.064021,-2.636483 z"
       style="fill:#ffffff;fill-opacity:1" />
    <path
       inkscape:connector-curvature="0"
       id="path9"
       d="m 55.101481,43.481365 c -1.123399,-1.206903 -2.430507,-1.931713 -3.921322,-2.175544 -1.491929,-0.246056 -2.97161,0 -4.442384,0.734831 -1.553165,0.693635 -2.615329,1.881611 -3.186492,3.555021 -0.572278,1.675636 -0.562257,3.351272 0.03117,5.024681 0.591205,1.675637 1.685657,2.860272 3.278903,3.555021 2.16441,1.307108 4.442384,1.184636 6.83281,-0.368528 2.389312,-1.550938 3.421415,-3.61403 3.094081,-6.188164 -0.0022,-1.552051 -0.56337,-2.931528 -1.68677,-4.137318 z"
       style="fill:#ffffff;fill-opacity:1" />
  </g>
</svg>
